<?xml version="1.0" encoding="UTF-8"?>
<svg width="24px" height="24px" viewBox="0 0 24 24" version="1.1" xmlns="http://www.w3.org/2000/svg" xmlns:xlink="http://www.w3.org/1999/xlink">
    <!-- Generator: Sketch 51.2 (57519) - http://www.bohemiancoding.com/sketch -->
    <title>facebook</title>
    <desc>Created with Sketch.</desc>
    <defs></defs>
    <g id="facebook" stroke="none" stroke-width="1" fill="none" fill-rule="evenodd">
        <g id="facebook-circular-logo-copy" fill="#6E6E6E" fill-rule="nonzero">
            <path d="M11.9755714,0.0498571429 C5.36171429,0.0498571429 0,5.41157143 0,12.0254286 C0,17.9572857 4.31742857,22.8698571 9.97828571,23.8211429 L9.97828571,14.5238571 L7.08942857,14.5238571 L7.08942857,11.1781429 L9.97828571,11.1781429 L9.97828571,8.71114286 C9.97828571,5.84871429 11.7265714,4.28885714 14.2804286,4.28885714 C15.5035714,4.28885714 16.5547143,4.38 16.8598571,4.42014286 L16.8598571,7.41214286 L15.0885714,7.413 C13.7,7.413 13.4322857,8.07271429 13.4322857,9.04114286 L13.4322857,11.1764286 L16.7455714,11.1764286 L16.3134286,14.5221429 L13.4322857,14.5221429 L13.4322857,23.9011429 C19.3574286,23.18 23.951,18.1422857 23.951,12.022 C23.951,5.41157143 18.5892857,0.0498571429 11.9755714,0.0498571429 Z" id="Shape"></path>
        </g>
    </g>
</svg>